<svg xmlns="http://www.w3.org/2000/svg" viewBox="0 0 115.28 115.28"><defs><style>.cls-1{stroke:#fff;stroke-miterlimit:10;stroke-width:3px;}.cls-2{fill:#fff;}</style></defs><g id="Livello_2" data-name="Livello 2"><g id="Livello_1-2" data-name="Livello 1"><rect class="cls-1" x="1.5" y="1.5" width="112.28" height="112.28"/><polygon class="cls-2" points="23.83 32.22 13.69 18.02 35.96 1.5 47.65 1.5 45.71 2.94 23.8 19.19 23.98 19.44 23.76 19.6 39.64 41.84 52.24 32.49 45.65 23.27 51.5 18.94 62.32 34.08 38.03 52.09 23.83 32.22"/><polygon class="cls-2" points="94.52 39.15 32.88 84.87 1.5 40.65 1.5 28.98 24.94 61.8 34.41 75.05 47.5 65.35 71.79 47.33 84.87 37.62 75.4 24.37 59.06 1.5 67.63 1.5 94.52 39.15"/><path class="cls-2" d="M7,108.38V93.78h9.6v2H9.22v4h7v1.92h-7v4.72h7.4v2Z"/><path class="cls-2" d="M21.68,108.38V93.78h2.8l4.28,8.94h0l4.28-8.94h2.8v14.6h-2.2V97.28h0l-3.82,8H27.74l-3.82-8h0v11.1Z"/><path class="cls-2" d="M41.28,108.38V93.78h2.2v6.34h0l6.76-6.34h2.8l-7.38,7,7.58,7.64h-2.8l-7-7h0v7Z"/><path class="cls-2" d="M62.56,108.58a8.23,8.23,0,0,1-4-.92A6.31,6.31,0,0,1,56,105.05a9,9,0,0,1,0-8,6.35,6.35,0,0,1,2.61-2.6,9,9,0,0,1,8,0,6.38,6.38,0,0,1,2.6,2.6,9,9,0,0,1,0,8,6.35,6.35,0,0,1-2.6,2.61A8.21,8.21,0,0,1,62.56,108.58Zm0-2a5.55,5.55,0,0,0,2.8-.67,4.49,4.49,0,0,0,1.81-1.9,7.13,7.13,0,0,0,0-5.86,4.49,4.49,0,0,0-1.81-1.9,6.19,6.19,0,0,0-5.6,0A4.49,4.49,0,0,0,58,98.15,7.13,7.13,0,0,0,58,104a4.49,4.49,0,0,0,1.81,1.9A5.55,5.55,0,0,0,62.56,106.58Z"/><path class="cls-2" d="M74.62,108.38V93.78H79a8.38,8.38,0,0,1,4.71,1,3.74,3.74,0,0,1,1.49,3.3,3.93,3.93,0,0,1-1.43,3.32,7.1,7.1,0,0,1-4.35,1.1H75.72v-1.92h3.4a5.78,5.78,0,0,0,2.95-.57,2.34,2.34,0,0,0,0-3.7,5.78,5.78,0,0,0-2.95-.57h-2.3v12.6Zm8.54,0-6.62-6.68h2.78l6.7,6.68Z"/><path class="cls-2" d="M90.4,108.38V93.78h4.2A8,8,0,0,1,99.43,95,4.3,4.3,0,0,1,101,98.64a4.39,4.39,0,0,1-1.51,3.65,7.25,7.25,0,0,1-4.59,1.21H91.5v-2h3.14a5.65,5.65,0,0,0,3.14-.68,2.91,2.91,0,0,0,0-4.36,5.65,5.65,0,0,0-3.14-.68h-2v12.6Z"/><path class="cls-2" d="M103.48,108.38v-2.6h2.6v2.6Z"/></g></g></svg>