<svg xmlns="http://www.w3.org/2000/svg" viewBox="0 0 373.16 115.27"><defs><style>.cls-1{stroke:#fff;stroke-miterlimit:10;stroke-width:3px;}.cls-2{fill:#fff;}</style></defs><g id="Livello_2" data-name="Livello 2"><g id="Livello_1-2" data-name="Livello 1"><rect class="cls-1" x="1.5" y="1.5" width="112.27" height="112.27"/><path class="cls-2" d="M78.85,104.72V66h25.44v5.19H84.68V81.93h18.55V87H84.68v12.5h19.61v5.2Z"/><path d="M123,104.72V66h7.42l11.34,23.69h.11L153.21,66h7.42v38.69H154.8V75.3h-.1L144.57,96.5h-5.51L128.94,75.3h-.11v29.42Z"/><path d="M180.24,104.72V66h5.83v16.8h.11L204.09,66h7.42L192,84.47,212,104.72h-7.42L186.18,86.11h-.11v18.61Z"/><path d="M241.93,105.25a21.63,21.63,0,0,1-10.52-2.44,16.94,16.94,0,0,1-6.91-6.92,21.6,21.6,0,0,1-2.44-10.52,21.54,21.54,0,0,1,2.44-10.54,16.92,16.92,0,0,1,6.91-6.89,24,24,0,0,1,21.07,0,17,17,0,0,1,6.89,6.89,21.66,21.66,0,0,1,2.44,10.54,21.71,21.71,0,0,1-2.44,10.52,17,17,0,0,1-6.89,6.92A21.58,21.58,0,0,1,241.93,105.25Zm0-5.3a14.71,14.71,0,0,0,7.42-1.78,11.83,11.83,0,0,0,4.8-5,16.9,16.9,0,0,0,1.67-7.77,16.86,16.86,0,0,0-1.67-7.76,11.86,11.86,0,0,0-4.8-5,16.44,16.44,0,0,0-14.84,0,11.89,11.89,0,0,0-4.79,5,16.73,16.73,0,0,0-1.67,7.76,16.78,16.78,0,0,0,1.67,7.77,11.87,11.87,0,0,0,4.79,5A14.74,14.74,0,0,0,241.93,100Z"/><path d="M279.19,104.72V66h11.66q8.53,0,12.48,2.75t3.95,8.75q0,5.88-3.79,8.8T292,89.24h-9.85V84.15h9c3.6,0,6.21-.5,7.81-1.51a5.34,5.34,0,0,0,2.42-4.9,5.34,5.34,0,0,0-2.42-4.9c-1.6-1-4.21-1.51-7.81-1.51H285v33.39Zm22.63,0L284.28,87h7.37l17.75,17.7Z"/><path d="M326.31,104.72V66h11.13q8.64,0,12.8,3.15t4.16,9.73q0,6.47-4,9.67t-12.17,3.21h-9v-5.3h8.32c3.82,0,6.59-.61,8.32-1.81s2.6-3.12,2.6-5.77-.86-4.58-2.6-5.78-4.5-1.8-8.32-1.8h-5.4v33.39Z"/><path d="M366.27,104.72V97.83h6.89v6.89Z"/><polygon class="cls-2" points="15.68 39.6 4.83 24.41 35.72 1.5 48.24 1.5 39.08 8.29 15.65 25.67 15.85 25.93 15.6 26.11 32.59 49.89 46.07 39.89 39.02 30.03 45.27 25.4 56.84 41.59 30.87 60.85 15.68 39.6"/><polygon class="cls-2" points="91.29 47.01 25.37 95.91 1.5 62.27 1.5 49.71 16.87 71.23 27 85.41 41 75.03 66.97 55.76 80.97 45.38 70.84 31.2 49.61 1.5 58.78 1.5 91.29 47.01"/></g></g></svg>